<svg xmlns="http://www.w3.org/2000/svg" version="1.1" xmlns:xlink="http://www.w3.org/1999/xlink" xmlns:svgjs="http://svgjs.com/svgjs" width="300" height="1000" preserveAspectRatio="none" viewBox="0 0 300 1000"><g mask="url(&quot;#SvgjsMask1184&quot;)" fill="none"><rect width="300" height="1000" x="0" y="0" fill="rgba(240, 237, 230, 1)"></rect><use xlink:href="#SvgjsSymbol1191" x="0" y="0"></use><use xlink:href="#SvgjsSymbol1191" x="0" y="720"></use></g><defs><mask id="SvgjsMask1184"><rect width="300" height="1000" fill="#ffffff"></rect></mask><path d="M-1 0 a1 1 0 1 0 2 0 a1 1 0 1 0 -2 0z" id="SvgjsPath1187"></path><path d="M-3 0 a3 3 0 1 0 6 0 a3 3 0 1 0 -6 0z" id="SvgjsPath1189"></path><path d="M-5 0 a5 5 0 1 0 10 0 a5 5 0 1 0 -10 0z" id="SvgjsPath1185"></path><path d="M2 -2 L-2 2z" id="SvgjsPath1190"></path><path d="M6 -6 L-6 6z" id="SvgjsPath1186"></path><path d="M30 -30 L-30 30z" id="SvgjsPath1188"></path></defs><symbol id="SvgjsSymbol1191"><use xlink:href="#SvgjsPath1185" x="30" y="30" stroke="rgba(22, 24, 32, 1)"></use><use xlink:href="#SvgjsPath1186" x="30" y="90" stroke="rgba(22, 24, 32, 1)"></use><use xlink:href="#SvgjsPath1186" x="30" y="150" stroke="rgba(22, 24, 32, 1)"></use><use xlink:href="#SvgjsPath1186" x="30" y="210" stroke="rgba(22, 24, 32, 1)"></use><use xlink:href="#SvgjsPath1185" x="30" y="270" stroke="rgba(22, 24, 32, 1)"></use><use xlink:href="#SvgjsPath1185" x="30" y="330" stroke="rgba(22, 24, 32, 1)"></use><use xlink:href="#SvgjsPath1185" x="30" y="390" stroke="rgba(22, 24, 32, 1)"></use><use xlink:href="#SvgjsPath1186" x="30" y="450" stroke="rgba(22, 24, 32, 1)"></use><use xlink:href="#SvgjsPath1185" x="30" y="510" stroke="rgba(22, 24, 32, 1)"></use><use xlink:href="#SvgjsPath1187" x="30" y="570" stroke="rgba(22, 24, 32, 1)"></use><use xlink:href="#SvgjsPath1188" x="30" y="630" stroke="rgba(22, 24, 32, 1)" stroke-width="3"></use><use xlink:href="#SvgjsPath1186" x="30" y="690" stroke="rgba(22, 24, 32, 1)"></use><use xlink:href="#SvgjsPath1186" x="90" y="30" stroke="rgba(22, 24, 32, 1)"></use><use xlink:href="#SvgjsPath1187" x="90" y="90" stroke="rgba(22, 24, 32, 1)"></use><use xlink:href="#SvgjsPath1187" x="90" y="150" stroke="rgba(22, 24, 32, 1)"></use><use xlink:href="#SvgjsPath1186" x="90" y="210" stroke="rgba(22, 24, 32, 1)"></use><use xlink:href="#SvgjsPath1185" x="90" y="270" stroke="rgba(22, 24, 32, 1)"></use><use xlink:href="#SvgjsPath1186" x="90" y="330" stroke="rgba(22, 24, 32, 1)"></use><use xlink:href="#SvgjsPath1186" x="90" y="390" stroke="rgba(22, 24, 32, 1)"></use><use xlink:href="#SvgjsPath1185" x="90" y="450" stroke="rgba(22, 24, 32, 1)"></use><use xlink:href="#SvgjsPath1186" x="90" y="510" stroke="rgba(22, 24, 32, 1)"></use><use xlink:href="#SvgjsPath1185" x="90" y="570" stroke="rgba(22, 24, 32, 1)"></use><use xlink:href="#SvgjsPath1189" x="90" y="630" stroke="rgba(22, 24, 32, 1)"></use><use xlink:href="#SvgjsPath1185" x="90" y="690" stroke="rgba(22, 24, 32, 1)"></use><use xlink:href="#SvgjsPath1185" x="150" y="30" stroke="rgba(22, 24, 32, 1)"></use><use xlink:href="#SvgjsPath1190" x="150" y="90" stroke="rgba(22, 24, 32, 1)"></use><use xlink:href="#SvgjsPath1186" x="150" y="150" stroke="rgba(22, 24, 32, 1)"></use><use xlink:href="#SvgjsPath1190" x="150" y="210" stroke="rgba(22, 24, 32, 1)"></use><use xlink:href="#SvgjsPath1185" x="150" y="270" stroke="rgba(22, 24, 32, 1)"></use><use xlink:href="#SvgjsPath1186" x="150" y="330" stroke="rgba(22, 24, 32, 1)"></use><use xlink:href="#SvgjsPath1185" x="150" y="390" stroke="rgba(22, 24, 32, 1)"></use><use xlink:href="#SvgjsPath1185" x="150" y="450" stroke="rgba(22, 24, 32, 1)"></use><use xlink:href="#SvgjsPath1185" x="150" y="510" stroke="rgba(22, 24, 32, 1)"></use><use xlink:href="#SvgjsPath1186" x="150" y="570" stroke="rgba(22, 24, 32, 1)"></use><use xlink:href="#SvgjsPath1189" x="150" y="630" stroke="rgba(22, 24, 32, 1)"></use><use xlink:href="#SvgjsPath1185" x="150" y="690" stroke="rgba(22, 24, 32, 1)"></use><use xlink:href="#SvgjsPath1190" x="210" y="30" stroke="rgba(22, 24, 32, 1)"></use><use xlink:href="#SvgjsPath1185" x="210" y="90" stroke="rgba(22, 24, 32, 1)"></use><use xlink:href="#SvgjsPath1185" x="210" y="150" stroke="rgba(22, 24, 32, 1)"></use><use xlink:href="#SvgjsPath1185" x="210" y="210" stroke="rgba(22, 24, 32, 1)"></use><use xlink:href="#SvgjsPath1187" x="210" y="270" stroke="rgba(22, 24, 32, 1)"></use><use xlink:href="#SvgjsPath1190" x="210" y="330" stroke="rgba(22, 24, 32, 1)"></use><use xlink:href="#SvgjsPath1186" x="210" y="390" stroke="rgba(22, 24, 32, 1)"></use><use xlink:href="#SvgjsPath1186" x="210" y="450" stroke="rgba(22, 24, 32, 1)"></use><use xlink:href="#SvgjsPath1190" x="210" y="510" stroke="rgba(22, 24, 32, 1)"></use><use xlink:href="#SvgjsPath1185" x="210" y="570" stroke="rgba(22, 24, 32, 1)"></use><use xlink:href="#SvgjsPath1186" x="210" y="630" stroke="rgba(22, 24, 32, 1)"></use><use xlink:href="#SvgjsPath1186" x="210" y="690" stroke="rgba(22, 24, 32, 1)"></use><use xlink:href="#SvgjsPath1185" x="270" y="30" stroke="rgba(22, 24, 32, 1)"></use><use xlink:href="#SvgjsPath1185" x="270" y="90" stroke="rgba(22, 24, 32, 1)"></use><use xlink:href="#SvgjsPath1185" x="270" y="150" stroke="rgba(22, 24, 32, 1)"></use><use xlink:href="#SvgjsPath1185" x="270" y="210" stroke="rgba(22, 24, 32, 1)"></use><use xlink:href="#SvgjsPath1189" x="270" y="270" stroke="rgba(22, 24, 32, 1)"></use><use xlink:href="#SvgjsPath1186" x="270" y="330" stroke="rgba(22, 24, 32, 1)"></use><use xlink:href="#SvgjsPath1186" x="270" y="390" stroke="rgba(22, 24, 32, 1)"></use><use xlink:href="#SvgjsPath1186" x="270" y="450" stroke="rgba(22, 24, 32, 1)"></use><use xlink:href="#SvgjsPath1185" x="270" y="510" stroke="rgba(22, 24, 32, 1)"></use><use xlink:href="#SvgjsPath1187" x="270" y="570" stroke="rgba(22, 24, 32, 1)"></use><use xlink:href="#SvgjsPath1186" x="270" y="630" stroke="rgba(22, 24, 32, 1)"></use><use xlink:href="#SvgjsPath1185" x="270" y="690" stroke="rgba(22, 24, 32, 1)"></use></symbol></svg>